M48
; DRILL file {KiCad 9.0.3} date 2025-07-19T14:36:28-0700
; FORMAT={-:-/ absolute / metric / decimal}
; #@! TF.CreationDate,2025-07-19T14:36:28-07:00
; #@! TF.GenerationSoftware,Kicad,Pcbnew,9.0.3
; #@! TF.FileFunction,Plated,1,2,PTH
FMAT,2
METRIC
; #@! TA.AperFunction,Plated,PTH,ComponentDrill
T1C0.700
; #@! TA.AperFunction,Plated,PTH,ComponentDrill
T2C0.889
; #@! TA.AperFunction,Plated,PTH,ComponentDrill
T3C1.210
; #@! TA.AperFunction,Plated,PTH,ComponentDrill
T4C1.500
%
G90
G05
T1
X174.92Y-132.5
X180.0Y-132.5
X183.92Y-132.5
X189.0Y-132.5
X191.92Y-132.5
X197.0Y-132.5
T2
X178.26Y-110.26
X178.26Y-112.8
X178.26Y-115.34
X178.26Y-117.88
X178.26Y-120.42
X178.26Y-122.96
X178.26Y-125.5
X193.5Y-110.26
X193.5Y-112.8
X193.5Y-115.34
X193.5Y-117.88
X193.5Y-120.42
X193.5Y-122.96
X193.5Y-125.5
T3
X174.92Y-141.5
X177.46Y-141.5
X183.96Y-141.5
X186.5Y-141.5
X194.46Y-141.5
X197.0Y-141.5
T4
X157.11Y-113.46
X157.11Y-132.46
X157.11Y-151.46
X163.46Y-110.92
X163.46Y-129.92
X163.46Y-148.92
M30
