%TF.GenerationSoftware,KiCad,Pcbnew,9.0.3*%
%TF.CreationDate,2025-07-19T14:34:55-07:00*%
%TF.ProjectId,aurorapcbworkshop,6175726f-7261-4706-9362-776f726b7368,rev?*%
%TF.SameCoordinates,Original*%
%TF.FileFunction,Copper,L1,Top*%
%TF.FilePolarity,Positive*%
%FSLAX46Y46*%
G04 Gerber Fmt 4.6, Leading zero omitted, Abs format (unit mm)*
G04 Created by KiCad (PCBNEW 9.0.3) date 2025-07-19 14:34:55*
%MOMM*%
%LPD*%
G01*
G04 APERTURE LIST*
G04 Aperture macros list*
%AMRoundRect*
0 Rectangle with rounded corners*
0 $1 Rounding radius*
0 $2 $3 $4 $5 $6 $7 $8 $9 X,Y pos of 4 corners*
0 Add a 4 corners polygon primitive as box body*
4,1,4,$2,$3,$4,$5,$6,$7,$8,$9,$2,$3,0*
0 Add four circle primitives for the rounded corners*
1,1,$1+$1,$2,$3*
1,1,$1+$1,$4,$5*
1,1,$1+$1,$6,$7*
1,1,$1+$1,$8,$9*
0 Add four rect primitives between the rounded corners*
20,1,$1+$1,$2,$3,$4,$5,0*
20,1,$1+$1,$4,$5,$6,$7,0*
20,1,$1+$1,$6,$7,$8,$9,0*
20,1,$1+$1,$8,$9,$2,$3,0*%
G04 Aperture macros list end*
%TA.AperFunction,SMDPad,CuDef*%
%ADD10RoundRect,0.152400X1.063600X0.609600X-1.063600X0.609600X-1.063600X-0.609600X1.063600X-0.609600X0*%
%TD*%
%TA.AperFunction,ComponentPad*%
%ADD11C,1.524000*%
%TD*%
%TA.AperFunction,SMDPad,CuDef*%
%ADD12RoundRect,0.152400X-1.063600X-0.609600X1.063600X-0.609600X1.063600X0.609600X-1.063600X0.609600X0*%
%TD*%
%TA.AperFunction,ComponentPad*%
%ADD13C,2.200000*%
%TD*%
%TA.AperFunction,ComponentPad*%
%ADD14C,1.400000*%
%TD*%
%TA.AperFunction,ComponentPad*%
%ADD15R,1.815000X1.815000*%
%TD*%
%TA.AperFunction,ComponentPad*%
%ADD16C,1.815000*%
%TD*%
%TA.AperFunction,Conductor*%
%ADD17C,0.200000*%
%TD*%
G04 APERTURE END LIST*
D10*
%TO.P,U2,1,GPIO26/ADC0/A0*%
%TO.N,Button1*%
X177425000Y-110260000D03*
D11*
X178260000Y-110260000D03*
D10*
%TO.P,U2,2,GPIO27/ADC1/A1*%
%TO.N,Button2*%
X177425000Y-112800000D03*
D11*
X178260000Y-112800000D03*
D10*
%TO.P,U2,3,GPIO28/ADC2/A2*%
%TO.N,Button3*%
X177425000Y-115340000D03*
D11*
X178260000Y-115340000D03*
D10*
%TO.P,U2,4,GPIO29/ADC3/A3*%
%TO.N,LED1*%
X177425000Y-117880000D03*
D11*
X178260000Y-117880000D03*
D10*
%TO.P,U2,5,GPIO6/SDA*%
%TO.N,LED2*%
X177425000Y-120420000D03*
D11*
X178260000Y-120420000D03*
D10*
%TO.P,U2,6,GPIO7/SCL*%
%TO.N,LED3*%
X177425000Y-122960000D03*
D11*
X178260000Y-122960000D03*
D10*
%TO.P,U2,7,GPIO0/TX*%
%TO.N,unconnected-(U2-GPIO0{slash}TX-Pad7)*%
X177425000Y-125500000D03*
D11*
X178260000Y-125500000D03*
%TO.P,U2,8,GPIO1/RX*%
%TO.N,unconnected-(U2-GPIO1{slash}RX-Pad8)*%
X193500000Y-125500000D03*
D12*
X194335000Y-125500000D03*
D11*
%TO.P,U2,9,GPIO2/SCK*%
%TO.N,unconnected-(U2-GPIO2{slash}SCK-Pad9)*%
X193500000Y-122960000D03*
D12*
X194335000Y-122960000D03*
D11*
%TO.P,U2,10,GPIO4/MISO*%
%TO.N,unconnected-(U2-GPIO4{slash}MISO-Pad10)*%
X193500000Y-120420000D03*
D12*
X194335000Y-120420000D03*
D11*
%TO.P,U2,11,GPIO3/MOSI*%
%TO.N,unconnected-(U2-GPIO3{slash}MOSI-Pad11)*%
X193500000Y-117880000D03*
D12*
X194335000Y-117880000D03*
D11*
%TO.P,U2,12,3V3*%
%TO.N,unconnected-(U2-3V3-Pad12)*%
X193500000Y-115340000D03*
D12*
X194335000Y-115340000D03*
D11*
%TO.P,U2,13,GND*%
%TO.N,GND*%
X193500000Y-112800000D03*
D12*
X194335000Y-112800000D03*
D11*
%TO.P,U2,14,VBUS*%
%TO.N,unconnected-(U2-VBUS-Pad14)*%
X193500000Y-110260000D03*
D12*
X194335000Y-110260000D03*
%TD*%
D13*
%TO.P,SW3,1,1*%
%TO.N,GND*%
X163460000Y-148920000D03*
%TO.P,SW3,2,2*%
%TO.N,Buttton3*%
X157110000Y-151460000D03*
%TD*%
%TO.P,SW2,1,1*%
%TO.N,GND*%
X163460000Y-129920000D03*
%TO.P,SW2,2,2*%
%TO.N,Button2*%
X157110000Y-132460000D03*
%TD*%
D14*
%TO.P,R3,1*%
%TO.N,Net-(D1-PadA)*%
X191920000Y-132500000D03*
%TO.P,R3,2*%
%TO.N,LED1*%
X197000000Y-132500000D03*
%TD*%
%TO.P,R2,1*%
%TO.N,Net-(D3-PadA)*%
X174920000Y-132500000D03*
%TO.P,R2,2*%
%TO.N,LED3*%
X180000000Y-132500000D03*
%TD*%
%TO.P,R1,1*%
%TO.N,Net-(D2-PadA)*%
X183920000Y-132500000D03*
%TO.P,R1,2*%
%TO.N,LED2*%
X189000000Y-132500000D03*
%TD*%
D15*
%TO.P,D3,C*%
%TO.N,GND*%
X174920000Y-141500000D03*
D16*
%TO.P,D3,A*%
%TO.N,Net-(D3-PadA)*%
X177460000Y-141500000D03*
%TD*%
D15*
%TO.P,D2,C*%
%TO.N,GND*%
X183960000Y-141500000D03*
D16*
%TO.P,D2,A*%
%TO.N,Net-(D2-PadA)*%
X186500000Y-141500000D03*
%TD*%
D15*
%TO.P,D1,C*%
%TO.N,GND*%
X194460000Y-141500000D03*
D16*
%TO.P,D1,A*%
%TO.N,Net-(D1-PadA)*%
X197000000Y-141500000D03*
%TD*%
D13*
%TO.P,SW1,1,1*%
%TO.N,GND*%
X163460000Y-110920000D03*
%TO.P,SW1,2,2*%
%TO.N,Button1*%
X157110000Y-113460000D03*
%TD*%
D17*
%TO.N,LED2*%
X190000000Y-131500000D02*
X189000000Y-132500000D01*
X194584372Y-131500000D02*
X190000000Y-131500000D01*
X197414628Y-133501000D02*
X196585372Y-133501000D01*
X198001000Y-132914628D02*
X197414628Y-133501000D01*
X198001000Y-121767374D02*
X198001000Y-132914628D01*
X195590626Y-119357000D02*
X198001000Y-121767374D01*
X193059690Y-119357000D02*
X195590626Y-119357000D01*
X190519690Y-116817000D02*
X193059690Y-119357000D01*
X196585372Y-133501000D02*
X194584372Y-131500000D01*
X176169374Y-116817000D02*
X190519690Y-116817000D01*
X175908000Y-117078374D02*
X176169374Y-116817000D01*
X175908000Y-118681626D02*
X175908000Y-117078374D01*
X177646374Y-120420000D02*
X175908000Y-118681626D01*
X178260000Y-120420000D02*
X177646374Y-120420000D01*
%TO.N,LED3*%
X173919000Y-126223370D02*
X177182370Y-122960000D01*
X177182370Y-122960000D02*
X178260000Y-122960000D01*
X173919000Y-132914628D02*
X173919000Y-126223370D01*
X174505372Y-133501000D02*
X173919000Y-132914628D01*
X180000000Y-132500000D02*
X178999000Y-133501000D01*
X178999000Y-133501000D02*
X174505372Y-133501000D01*
%TO.N,GND*%
X166390000Y-148920000D02*
X163460000Y-148920000D01*
X173810000Y-141500000D02*
X166390000Y-148920000D01*
X164095184Y-141500000D02*
X173810000Y-141500000D01*
X158569000Y-135973816D02*
X164095184Y-141500000D01*
X158569000Y-135191900D02*
X158569000Y-135973816D01*
X157436100Y-134059000D02*
X158569000Y-135191900D01*
X155342530Y-133799000D02*
X154820765Y-134320765D01*
X157765366Y-134059000D02*
X156597470Y-134059000D01*
X161904366Y-129920000D02*
X157765366Y-134059000D01*
X163460000Y-129920000D02*
X161904366Y-129920000D01*
X163460000Y-110920000D02*
X163460000Y-129920000D01*
%TO.N,Button1*%
X164626100Y-107519000D02*
X163051000Y-107519000D01*
X170970100Y-113863000D02*
X164626100Y-107519000D01*
X178700310Y-113863000D02*
X170970100Y-113863000D01*
X163051000Y-107519000D02*
X157110000Y-113460000D01*
X179323000Y-111323000D02*
X179323000Y-113240310D01*
X179323000Y-113240310D02*
X178700310Y-113863000D01*
X178260000Y-110260000D02*
X179323000Y-111323000D01*
%TO.N,Button2*%
X161470686Y-107118000D02*
X171964374Y-107118000D01*
X155709000Y-112879686D02*
X161470686Y-107118000D01*
X177646374Y-112800000D02*
X178260000Y-112800000D01*
X157110000Y-115441314D02*
X155709000Y-114040314D01*
X155709000Y-114040314D02*
X155709000Y-112879686D01*
X157110000Y-132460000D02*
X157110000Y-115441314D01*
X171964374Y-107118000D02*
X177646374Y-112800000D01*
%TO.N,GND*%
X198402000Y-141807078D02*
X198402000Y-116867000D01*
X197500578Y-142708500D02*
X198402000Y-141807078D01*
X195668500Y-142708500D02*
X197500578Y-142708500D01*
X198402000Y-116867000D02*
X194335000Y-112800000D01*
X194460000Y-141500000D02*
X195668500Y-142708500D01*
X183397500Y-152562500D02*
X194460000Y-141500000D01*
X164183900Y-152562500D02*
X183397500Y-152562500D01*
X154639000Y-143017600D02*
X164183900Y-152562500D01*
X154639000Y-134502530D02*
X154639000Y-143017600D01*
X155342530Y-133799000D02*
X154639000Y-134502530D01*
X156597470Y-134059000D02*
X156337470Y-133799000D01*
X157436100Y-134059000D02*
X156597470Y-134059000D01*
X157671000Y-134293900D02*
X157436100Y-134059000D01*
X157671000Y-143131000D02*
X157671000Y-134293900D01*
X163460000Y-148920000D02*
X157671000Y-143131000D01*
X156337470Y-133799000D02*
X155342530Y-133799000D01*
X175047000Y-152562500D02*
X184500000Y-143109500D01*
X164183900Y-152562500D02*
X175047000Y-152562500D01*
X183960000Y-141500000D02*
X184767500Y-142307500D01*
X184767500Y-142307500D02*
X185125400Y-142307500D01*
%TO.N,Net-(D3-PadA)*%
X185168500Y-140291500D02*
X185168500Y-141500000D01*
X178668500Y-140291500D02*
X185168500Y-140291500D01*
X177460000Y-141500000D02*
X178668500Y-140291500D01*
%TO.N,LED3*%
X173919000Y-126466000D02*
X177425000Y-122960000D01*
X173919000Y-132914628D02*
X173919000Y-126466000D01*
%TO.N,LED1*%
X181876000Y-121496000D02*
X178260000Y-117880000D01*
X197000000Y-122739274D02*
X195756726Y-121496000D01*
X197000000Y-132500000D02*
X197000000Y-122739274D01*
X195756726Y-121496000D02*
X181876000Y-121496000D01*
%TO.N,Net-(D1-PadA)*%
X191920000Y-136420000D02*
X197000000Y-141500000D01*
X191920000Y-132500000D02*
X191920000Y-136420000D01*
%TO.N,Net-(D2-PadA)*%
X185291500Y-142708500D02*
X186500000Y-141500000D01*
X176251500Y-142000578D02*
X176959422Y-142708500D01*
X176251500Y-140192700D02*
X176251500Y-142000578D01*
X183920000Y-132524200D02*
X176251500Y-140192700D01*
X176959422Y-142708500D02*
X185291500Y-142708500D01*
X183920000Y-132500000D02*
X183920000Y-132524200D01*
%TO.N,Net-(D3-PadA)*%
X184921000Y-134039000D02*
X177460000Y-141500000D01*
X184921000Y-132575690D02*
X184921000Y-134039000D01*
X193321064Y-124175626D02*
X184921000Y-132575690D01*
X195852000Y-124175626D02*
X193321064Y-124175626D01*
X195852000Y-122158374D02*
X195852000Y-124175626D01*
X195590626Y-121897000D02*
X195852000Y-122158374D01*
X193059690Y-121897000D02*
X195590626Y-121897000D01*
X185175690Y-129781000D02*
X193059690Y-121897000D01*
X177639000Y-129781000D02*
X185175690Y-129781000D01*
X174920000Y-132500000D02*
X177639000Y-129781000D01*
X177460000Y-141500000D02*
X177460000Y-139618600D01*
%TO.N,Buttton3*%
X157150000Y-151500000D02*
X157500000Y-151500000D01*
X157110000Y-151460000D02*
X157150000Y-151500000D01*
%TO.N,GND*%
X163460000Y-110920000D02*
X162675184Y-110920000D01*
%TO.N,LED3*%
X179028000Y-133194370D02*
X180302370Y-131920000D01*
%TD*%
M02*
